<?xml version="1.0" encoding="UTF-8"?>
<svg xmlns="http://www.w3.org/2000/svg" xmlns:xlink="http://www.w3.org/1999/xlink" viewBox="0 0 48 48" width="48px" height="48px">
<g id="surface199843710">
<path style=" stroke:none;fill-rule:nonzero;fill:rgb(100%,90.980393%,78.039217%);fill-opacity:1;" d="M 39.496094 30.488281 C 39.261719 27.449219 38.914062 24.421875 38.699219 21.375 C 38.484375 18.367188 38.363281 15.335938 38.277344 12.320312 C 38.242188 11.054688 38.269531 9.789062 38.257812 8.523438 C 38.257812 7.941406 38.242188 7.339844 38.136719 6.769531 C 38.089844 6.523438 38.042969 6.289062 37.949219 6.054688 C 37.914062 5.960938 37.875 5.878906 37.828125 5.792969 C 37.761719 5.851562 37.679688 5.886719 37.566406 5.90625 C 35.289062 6.253906 32.945312 6.367188 30.636719 6.449219 C 27.601562 6.554688 24.554688 6.601562 21.515625 6.804688 C 19.996094 6.910156 18.488281 7.039062 16.96875 7.070312 C 15.75 7.097656 14.539062 7.152344 13.320312 7.238281 C 12.570312 7.292969 11.820312 7.3125 11.070312 7.378906 C 10.695312 7.414062 10.3125 7.445312 9.9375 7.519531 C 9.824219 7.539062 9.710938 7.574219 9.609375 7.613281 C 9.617188 7.648438 9.617188 7.695312 9.609375 7.734375 C 9.5625 8.371094 9.769531 9 9.890625 9.609375 C 10.023438 10.265625 10.050781 10.929688 10.070312 11.597656 C 10.105469 13.011719 10.152344 14.429688 10.191406 15.84375 C 10.273438 18.769531 10.285156 21.695312 10.585938 24.609375 C 10.734375 26.089844 10.929688 27.570312 11.101562 29.054688 C 11.257812 30.476562 11.242188 31.929688 11.242188 33.355469 C 11.230469 36.234375 11.222656 39.101562 11.222656 41.980469 C 11.476562 41.980469 11.71875 41.980469 11.972656 41.980469 C 17.757812 41.992188 23.550781 42.09375 29.335938 42.140625 C 29.410156 42.039062 29.53125 41.972656 29.699219 41.980469 C 30.449219 42 30.957031 41.042969 31.265625 40.480469 C 31.519531 40.023438 31.726562 39.542969 31.941406 39.066406 C 30.890625 39.074219 29.867188 39.289062 28.828125 39.429688 C 27.28125 39.636719 25.742188 39.890625 24.1875 40.011719 C 21.449219 40.238281 18.570312 40.519531 15.882812 39.742188 C 15.242188 39.5625 15.441406 38.539062 16.078125 38.726562 C 18.769531 39.507812 21.710938 39.214844 24.46875 38.945312 C 25.960938 38.804688 27.441406 38.558594 28.921875 38.371094 C 29.90625 38.242188 30.863281 38.042969 31.847656 38.035156 C 31.855469 38.035156 31.867188 38.035156 31.875 38.035156 L 31.902344 38.035156 C 32.070312 38.035156 32.203125 38.101562 32.296875 38.203125 C 32.523438 37.667969 32.71875 37.085938 32.859375 36.476562 C 32.351562 36.449219 31.828125 36.542969 31.320312 36.5625 C 30.542969 36.589844 29.773438 36.664062 29.015625 36.789062 C 27.535156 37.011719 26.0625 37.285156 24.570312 37.445312 C 21.570312 37.761719 18.5625 37.929688 15.5625 37.621094 C 14.898438 37.554688 15.101562 36.542969 15.757812 36.609375 C 18.835938 36.929688 21.964844 36.710938 25.03125 36.367188 C 26.523438 36.195312 27.984375 35.878906 29.476562 35.691406 C 30.195312 35.597656 30.917969 35.578125 31.640625 35.53125 C 32.082031 35.503906 32.53125 35.457031 32.972656 35.476562 C 32.972656 35.417969 32.980469 35.363281 32.980469 35.296875 C 32.992188 35.25 32.992188 35.195312 33 35.148438 C 33.027344 35.148438 33.054688 35.148438 33.085938 35.148438 C 33.113281 34.835938 33.132812 34.527344 33.132812 34.21875 C 31.726562 34.378906 30.347656 34.585938 28.96875 34.921875 C 27.328125 35.324219 25.734375 35.804688 24.046875 35.925781 C 22.386719 36.039062 20.71875 36.019531 19.058594 35.914062 C 18.300781 35.867188 17.550781 35.8125 16.789062 35.765625 C 16.125 35.726562 15.476562 35.664062 14.867188 35.382812 C 14.269531 35.101562 14.726562 34.179688 15.328125 34.453125 C 15.9375 34.734375 16.632812 34.726562 17.277344 34.753906 C 18.007812 34.789062 18.742188 34.875 19.472656 34.902344 C 21.085938 34.988281 22.714844 35.015625 24.320312 34.855469 C 25.96875 34.695312 27.542969 34.179688 29.15625 33.804688 C 30.449219 33.507812 31.753906 33.320312 33.066406 33.167969 C 33.019531 32.804688 32.945312 32.4375 32.839844 32.089844 C 32.832031 32.089844 32.820312 32.089844 32.8125 32.089844 C 32.71875 32.109375 32.625 32.117188 32.53125 32.136719 C 32.257812 32.175781 31.996094 32.230469 31.734375 32.277344 C 30.957031 32.429688 30.179688 32.558594 29.390625 32.664062 C 27.769531 32.878906 26.148438 33.007812 24.515625 33.101562 C 21.214844 33.289062 17.925781 33.355469 14.625 33.355469 C 13.960938 33.355469 13.882812 32.324219 14.550781 32.324219 C 17.972656 32.324219 21.382812 32.257812 24.804688 32.042969 C 26.539062 31.929688 28.285156 31.789062 30 31.519531 C 30.742188 31.40625 31.480469 31.210938 32.222656 31.125 C 32.558594 31.085938 33.054688 30.898438 33.382812 31.097656 C 33.394531 31.097656 33.394531 31.105469 33.402344 31.105469 L 33.402344 31.023438 C 33.414062 31.023438 33.421875 31.03125 33.421875 31.03125 C 34.554688 31.601562 35.679688 32.390625 36.976562 32.511719 C 37.367188 32.550781 37.773438 32.570312 38.164062 32.539062 C 38.324219 32.53125 38.933594 32.511719 39.007812 32.390625 C 39.140625 32.164062 39.367188 32.109375 39.570312 32.148438 C 39.582031 31.621094 39.542969 31.058594 39.496094 30.488281 Z M 36.039062 24.890625 C 34.226562 24.898438 32.417969 25.210938 30.617188 25.433594 C 28.867188 25.660156 27.121094 25.941406 25.378906 26.222656 C 23.644531 26.503906 21.910156 26.792969 20.15625 26.945312 C 18.414062 27.085938 16.660156 27.140625 14.914062 27.140625 C 14.25 27.140625 14.175781 26.109375 14.839844 26.109375 C 16.648438 26.109375 18.460938 26.0625 20.269531 25.894531 C 22.023438 25.734375 23.757812 25.445312 25.492188 25.164062 C 27.234375 24.871094 28.976562 24.589844 30.742188 24.375 C 32.417969 24.167969 34.097656 23.886719 35.785156 23.859375 C 35.804688 23.859375 35.820312 23.859375 35.851562 23.859375 L 35.972656 23.859375 C 36.617188 23.859375 36.703125 24.882812 36.039062 24.890625 Z M 35.652344 21.007812 C 35.445312 20.972656 35.128906 21.046875 34.894531 21.085938 C 34.613281 21.121094 34.332031 21.132812 34.050781 21.160156 C 33.234375 21.234375 32.417969 21.347656 31.601562 21.488281 C 29.945312 21.777344 28.285156 22.011719 26.597656 22.023438 C 25.929688 22.023438 25.855469 21 26.523438 20.992188 C 28.339844 20.980469 30.09375 20.671875 31.882812 20.398438 C 32.699219 20.277344 33.515625 20.183594 34.339844 20.109375 C 34.828125 20.0625 35.351562 19.921875 35.851562 19.996094 C 36.507812 20.101562 36.308594 21.113281 35.652344 21.007812 Z M 34.914062 16.988281 C 34.761719 17.070312 34.648438 17.117188 34.472656 17.136719 C 34.398438 17.148438 34.332031 17.136719 34.273438 17.117188 C 33 17.269531 31.726562 17.53125 30.460938 17.71875 C 29.351562 17.886719 28.21875 17.945312 27.101562 17.945312 C 26.4375 17.945312 26.363281 16.914062 27.027344 16.914062 C 28.210938 16.914062 29.351562 16.78125 30.523438 16.660156 C 31.894531 16.519531 33.226562 16.171875 34.585938 16.03125 C 35.082031 16.003906 35.363281 16.726562 34.914062 16.988281 Z M 35.117188 19.078125 C 34.960938 19.152344 34.800781 19.144531 34.667969 19.078125 C 33.429688 19.105469 32.210938 19.386719 30.976562 19.519531 C 29.664062 19.660156 28.367188 20.0625 27.039062 20.015625 C 26.382812 19.996094 26.296875 18.964844 26.960938 18.984375 C 28.292969 19.03125 29.585938 18.617188 30.898438 18.488281 C 32.277344 18.347656 33.628906 18.007812 35.023438 18.046875 C 35.664062 18.066406 35.773438 19.003906 35.117188 19.078125 Z M 34.734375 15.414062 L 34.742188 15.394531 C 34.546875 15.582031 34.246094 15.570312 34.050781 15.449219 C 32.773438 15.46875 31.527344 15.757812 30.273438 15.929688 C 28.902344 16.117188 27.542969 16.199219 26.164062 16.199219 C 25.5 16.199219 25.425781 15.167969 26.089844 15.167969 C 27.523438 15.167969 28.960938 15.085938 30.375 14.867188 C 31.714844 14.664062 33.046875 14.371094 34.40625 14.417969 C 34.621094 14.429688 34.875 14.523438 34.929688 14.765625 C 34.929688 14.785156 34.941406 14.792969 34.941406 14.8125 C 34.996094 15.046875 34.941406 15.261719 34.734375 15.414062 Z M 32.371094 7.761719 C 33.09375 7.152344 34.292969 6.917969 35.164062 7.292969 C 35.773438 7.554688 35.316406 8.476562 34.707031 8.222656 C 34.320312 8.0625 33.617188 8.164062 33.273438 8.390625 C 33.1875 8.445312 32.558594 8.980469 32.710938 9.039062 C 33.113281 9.179688 33.617188 9.054688 34.039062 9.160156 C 34.574219 9.289062 35.007812 9.542969 35.316406 10.003906 C 35.867188 10.820312 35.886719 12.027344 35.101562 12.703125 C 34.425781 13.285156 33.402344 13.398438 32.550781 13.40625 C 31.882812 13.414062 31.808594 12.382812 32.476562 12.375 C 33.214844 12.367188 34.800781 12.308594 34.695312 11.222656 C 34.640625 10.613281 34.292969 10.292969 33.730469 10.152344 C 33.28125 10.039062 32.8125 10.152344 32.363281 10.003906 C 31.210938 9.582031 31.707031 8.324219 32.371094 7.761719 Z M 23.925781 8.101562 C 23.953125 7.445312 24.984375 7.359375 24.957031 8.023438 C 24.917969 8.945312 25.507812 9.789062 25.808594 10.632812 C 25.96875 11.101562 26.128906 11.597656 26.363281 12.054688 C 26.476562 11.671875 26.570312 11.296875 26.625 10.902344 C 26.710938 10.292969 26.757812 9.683594 27.121094 9.167969 C 27.289062 8.933594 27.65625 8.953125 27.851562 9.121094 C 28.574219 9.75 28.921875 10.59375 29.324219 11.410156 C 29.410156 11.007812 29.484375 10.59375 29.511719 10.179688 C 29.550781 9.65625 29.492188 9.046875 29.792969 8.585938 C 30.148438 8.042969 31.085938 8.492188 30.722656 9.046875 C 30.441406 9.476562 30.570312 10.164062 30.488281 10.648438 C 30.355469 11.410156 30.195312 12.160156 30.074219 12.910156 C 30 13.378906 29.398438 13.433594 29.136719 13.097656 C 28.519531 12.308594 28.257812 11.289062 27.683594 10.472656 C 27.648438 10.761719 27.648438 11.0625 27.589844 11.304688 C 27.441406 11.992188 27.214844 12.65625 27.066406 13.339844 C 26.992188 13.695312 26.503906 13.921875 26.222656 13.632812 C 25.519531 12.882812 25.164062 11.914062 24.824219 10.960938 C 24.496094 10.03125 23.878906 9.121094 23.925781 8.101562 Z M 18.507812 8.351562 C 18.5625 8.257812 18.648438 8.183594 18.769531 8.136719 C 19.472656 7.867188 20.195312 8.054688 20.925781 7.996094 C 21.214844 7.96875 21.507812 7.988281 21.796875 7.976562 C 21.9375 7.96875 22.078125 7.96875 22.21875 7.949219 C 22.257812 7.949219 22.460938 7.875 22.351562 7.949219 C 22.902344 7.574219 23.476562 8.4375 22.929688 8.804688 C 22.5 9.09375 21.769531 9.007812 21.273438 9.019531 C 20.644531 9.019531 19.855469 8.886719 19.238281 9.085938 C 19.339844 9.476562 19.351562 9.964844 19.351562 10.320312 C 19.386719 10.3125 19.433594 10.304688 19.480469 10.3125 C 20.164062 10.320312 20.832031 10.359375 21.507812 10.285156 C 21.957031 10.238281 22.480469 10.125 22.929688 10.257812 C 23.558594 10.445312 23.371094 11.464844 22.734375 11.269531 C 22.3125 11.136719 21.796875 11.304688 21.367188 11.335938 C 20.757812 11.371094 20.164062 11.34375 19.554688 11.34375 C 19.5 11.34375 19.445312 11.335938 19.398438 11.316406 C 19.425781 11.878906 19.453125 12.441406 19.425781 12.992188 C 20.671875 12.957031 21.910156 12.703125 23.164062 12.75 C 23.820312 12.777344 23.90625 13.800781 23.242188 13.78125 C 21.917969 13.734375 20.625 14.015625 19.304688 14.035156 C 19.078125 14.035156 18.917969 13.921875 18.835938 13.761719 C 18.582031 13.707031 18.347656 13.5 18.382812 13.171875 C 18.382812 13.152344 18.382812 13.164062 18.382812 13.164062 C 18.382812 13.152344 18.382812 13.132812 18.382812 13.105469 C 18.382812 13.03125 18.382812 12.945312 18.382812 12.871094 C 18.382812 12.695312 18.382812 12.515625 18.382812 12.335938 C 18.375 11.886719 18.367188 11.445312 18.335938 11.007812 C 18.320312 10.574219 18.289062 10.144531 18.242188 9.722656 C 18.226562 9.5625 18.207031 9.402344 18.179688 9.253906 C 18.167969 9.226562 18.167969 9.214844 18.167969 9.214844 C 18.167969 9.214844 18.160156 9.207031 18.160156 9.1875 C 17.953125 8.859375 18.113281 8.371094 18.507812 8.351562 Z M 12.429688 8.960938 C 12.496094 8.550781 12.917969 8.476562 13.199219 8.632812 C 13.339844 8.597656 13.5 8.617188 13.648438 8.738281 C 14.335938 9.28125 14.671875 10.226562 15.113281 10.960938 C 15.429688 11.484375 15.835938 11.925781 16.21875 12.394531 C 16.265625 11.90625 16.285156 11.410156 16.339844 10.921875 C 16.425781 10.292969 16.613281 9.609375 16.539062 8.972656 C 16.460938 8.304688 17.484375 8.230469 17.570312 8.898438 C 17.644531 9.570312 17.457031 10.304688 17.371094 10.96875 C 17.25 11.90625 17.296875 12.871094 16.996094 13.78125 C 16.828125 14.289062 16.238281 14.335938 16.003906 13.855469 C 15.554688 12.945312 14.699219 12.320312 14.195312 11.445312 C 13.941406 11.007812 13.714844 10.453125 13.40625 10.003906 C 13.453125 10.660156 13.621094 11.335938 13.6875 11.953125 C 13.761719 12.710938 13.808594 13.472656 13.808594 14.242188 C 13.808594 14.25 13.808594 14.257812 13.808594 14.269531 L 13.808594 14.34375 C 13.808594 15.007812 12.777344 15.085938 12.777344 14.417969 C 12.777344 13.546875 12.730469 12.675781 12.628906 11.804688 C 12.554688 10.882812 12.28125 9.898438 12.429688 8.960938 Z M 13.386719 20.738281 C 13.292969 20.382812 13.171875 20.023438 13.078125 19.667969 C 12.851562 18.84375 12.664062 18.007812 12.488281 17.175781 C 12.402344 16.773438 12.777344 16.585938 13.097656 16.667969 C 13.125 16.640625 13.164062 16.613281 13.210938 16.585938 C 13.875 16.21875 14.664062 16.226562 15.394531 16.125 C 16.386719 15.984375 17.363281 15.769531 18.367188 15.675781 C 20.023438 15.507812 21.703125 15.394531 23.371094 15.382812 C 23.492188 14.972656 24.179688 14.839844 24.367188 15.347656 C 24.710938 16.292969 24.816406 17.34375 24.910156 18.347656 C 25.023438 19.472656 25.078125 20.597656 25.078125 21.730469 C 25.078125 21.898438 25.023438 22.105469 24.851562 22.199219 C 24.320312 22.492188 23.765625 22.6875 23.175781 22.820312 C 23.089844 22.835938 23.015625 22.835938 22.941406 22.828125 C 22.210938 23.277344 20.960938 23.015625 20.210938 22.949219 C 19.585938 22.894531 18.945312 22.921875 18.308594 22.941406 C 17.585938 22.960938 16.855469 22.941406 16.132812 23.0625 C 15.019531 23.257812 13.707031 23.289062 13.5 21.882812 C 13.453125 21.488281 13.480469 21.09375 13.386719 20.738281 Z M 14.269531 24.234375 C 17.8125 24.226562 21.335938 23.765625 24.863281 23.429688 C 26.671875 23.257812 28.480469 23.089844 30.28125 22.820312 C 31.132812 22.6875 31.988281 22.613281 32.839844 22.480469 C 33.335938 22.40625 33.863281 22.445312 34.367188 22.378906 C 34.445312 22.285156 34.554688 22.226562 34.714844 22.226562 L 35.023438 22.226562 C 35.597656 22.226562 35.8125 23.023438 35.230469 23.230469 C 34.519531 23.484375 33.789062 23.371094 33.054688 23.484375 C 32.222656 23.617188 31.378906 23.691406 30.542969 23.820312 C 28.742188 24.09375 26.933594 24.273438 25.125 24.441406 C 21.542969 24.777344 17.960938 25.246094 14.351562 25.257812 C 13.6875 25.265625 13.613281 24.234375 14.269531 24.234375 Z M 14.398438 28.171875 C 16.105469 28.078125 17.820312 28.285156 19.527344 28.191406 C 21.242188 28.097656 22.960938 27.863281 24.664062 27.695312 C 26.484375 27.515625 28.292969 27.335938 30.101562 27.113281 C 30.964844 27.007812 31.847656 26.960938 32.710938 26.792969 C 33.367188 26.664062 33.964844 26.457031 34.632812 26.429688 C 34.660156 26.429688 34.679688 26.417969 34.707031 26.417969 L 34.820312 26.417969 C 35.484375 26.417969 35.558594 27.449219 34.894531 27.449219 C 34.097656 27.449219 33.382812 27.730469 32.605469 27.851562 C 31.742188 27.992188 30.863281 28.058594 29.992188 28.164062 C 28.238281 28.367188 26.484375 28.546875 24.730469 28.714844 C 22.96875 28.894531 21.195312 29.148438 19.414062 29.222656 C 17.765625 29.289062 16.105469 29.109375 14.457031 29.195312 C 13.808594 29.242188 13.734375 28.210938 14.398438 28.171875 Z M 36.757812 29.023438 C 36.375 29.410156 35.671875 29.304688 35.175781 29.363281 C 34.292969 29.476562 33.421875 29.765625 32.539062 29.878906 C 31.527344 30.019531 30.515625 30.054688 29.492188 30.121094 C 28.480469 30.1875 27.476562 30.320312 26.484375 30.449219 C 24.441406 30.722656 22.40625 31.117188 20.335938 31.171875 C 19.339844 31.199219 18.347656 31.191406 17.34375 31.191406 C 16.480469 31.191406 15.554688 31.304688 14.710938 31.117188 C 14.0625 30.976562 14.257812 29.960938 14.90625 30.101562 C 15.769531 30.289062 16.742188 30.160156 17.617188 30.160156 C 18.554688 30.160156 19.492188 30.167969 20.429688 30.140625 C 22.378906 30.066406 24.289062 29.710938 26.222656 29.445312 C 27.226562 29.316406 28.226562 29.175781 29.230469 29.109375 C 30.1875 29.042969 31.144531 29.015625 32.089844 28.902344 C 33.007812 28.789062 33.917969 28.59375 34.820312 28.386719 C 35.0625 28.332031 35.316406 28.320312 35.570312 28.304688 C 35.699219 28.292969 35.839844 28.285156 35.972656 28.265625 C 36.160156 28.238281 36.132812 28.179688 35.972656 28.351562 C 36.449219 27.871094 37.226562 28.554688 36.757812 29.023438 Z M 36.757812 29.023438 "/>
<path style=" stroke:none;fill-rule:nonzero;fill:rgb(73.725492%,73.725492%,73.725492%);fill-opacity:1;" d="M 37.078125 33.601562 C 35.972656 33.515625 35.007812 33.054688 34.050781 32.558594 C 34.078125 32.726562 34.105469 32.90625 34.125 33.085938 C 34.152344 33.101562 34.179688 33.140625 34.199219 33.167969 C 34.171875 33.207031 34.164062 33.253906 34.171875 33.308594 C 34.210938 33.554688 34.21875 33.796875 34.226562 34.039062 C 34.21875 34.050781 34.199219 34.058594 34.179688 34.070312 C 34.191406 35.710938 33.777344 37.40625 33.179688 38.839844 C 33.027344 39.1875 32.886719 39.542969 32.738281 39.890625 C 33.449219 39.214844 34.199219 38.578125 34.929688 37.902344 C 35.746094 37.144531 36.535156 36.367188 37.339844 35.597656 C 38.023438 34.941406 38.691406 34.257812 39.273438 33.507812 C 39.273438 33.488281 39.28125 33.46875 39.289062 33.449219 C 38.605469 33.722656 37.707031 33.648438 37.078125 33.601562 Z M 37.078125 33.601562 "/>
<path style=" stroke:none;fill-rule:nonzero;fill:rgb(73.725492%,73.725492%,73.725492%);fill-opacity:1;" d="M 41.691406 38.136719 C 41.523438 37.714844 41.617188 37.285156 41.570312 36.835938 C 41.492188 36.207031 41.445312 35.570312 41.4375 34.929688 C 41.410156 33.488281 41.371094 32.054688 41.371094 30.609375 C 41.363281 27.535156 41.070312 24.476562 40.882812 21.414062 C 40.707031 18.375 40.808594 15.335938 40.378906 12.320312 C 40.265625 11.550781 40.097656 10.789062 40.003906 10.023438 C 39.917969 9.335938 39.910156 8.652344 39.804688 7.96875 C 39.695312 7.21875 39.476562 6.496094 39.367188 5.746094 C 39.28125 5.203125 39.226562 4.648438 39.160156 4.105469 C 39.046875 4.125 38.945312 4.105469 38.867188 4.050781 C 36.414062 4.171875 33.9375 4.152344 31.492188 4.378906 C 28.96875 4.613281 26.464844 5.070312 23.933594 5.183594 C 21.414062 5.296875 18.882812 5.230469 16.351562 5.351562 C 15.695312 5.382812 15.039062 5.429688 14.382812 5.476562 C 13.820312 5.523438 13.265625 5.738281 12.703125 5.765625 C 12.460938 5.773438 12.226562 5.785156 11.980469 5.726562 C 11.859375 5.699219 11.746094 5.664062 11.625 5.644531 C 11.585938 5.644531 11.570312 5.644531 11.550781 5.644531 C 11.539062 5.765625 11.597656 5.933594 11.617188 6.027344 C 11.632812 6.121094 11.632812 6.214844 11.632812 6.308594 C 12.113281 6.28125 12.589844 6.253906 13.078125 6.226562 C 15.75 6.054688 18.414062 5.992188 21.085938 5.804688 C 24.179688 5.585938 27.289062 5.53125 30.394531 5.429688 C 32.757812 5.34375 35.164062 5.242188 37.5 4.882812 C 37.59375 4.867188 37.679688 4.875 37.742188 4.902344 C 37.875 4.808594 38.042969 4.773438 38.230469 4.835938 C 38.710938 5.007812 38.914062 5.605469 39.039062 6.066406 C 39.179688 6.617188 39.253906 7.191406 39.273438 7.761719 C 39.320312 8.953125 39.253906 10.144531 39.28125 11.335938 C 39.308594 12.84375 39.382812 14.351562 39.460938 15.863281 C 39.601562 18.898438 39.75 21.929688 40.03125 24.957031 C 40.285156 27.710938 40.566406 30.476562 40.695312 33.242188 L 40.433594 33.242188 C 40.5 33.402344 40.492188 33.589844 40.359375 33.769531 C 39.703125 34.6875 38.914062 35.503906 38.101562 36.289062 C 37.332031 37.023438 36.582031 37.773438 35.804688 38.492188 C 35.109375 39.140625 34.359375 39.757812 33.648438 40.414062 C 34.285156 40.3125 34.914062 40.152344 35.550781 40.003906 C 36.367188 39.816406 37.164062 39.703125 37.996094 39.617188 C 38.90625 39.535156 39.824219 39.441406 40.726562 39.300781 C 40.921875 39.273438 41.492188 39.273438 41.578125 39.039062 C 41.644531 38.859375 41.605469 38.617188 41.605469 38.429688 C 41.605469 38.304688 41.632812 38.210938 41.691406 38.136719 Z M 41.691406 38.136719 "/>
<path style=" stroke:none;fill-rule:nonzero;fill:rgb(11.764706%,26.274511%,51.764709%);fill-opacity:1;" d="M 23.898438 18.582031 C 23.820312 17.859375 23.765625 17.109375 23.597656 16.386719 C 21.929688 16.398438 20.257812 16.5 18.601562 16.667969 C 17.671875 16.761719 16.753906 16.960938 15.824219 17.089844 C 15.449219 17.148438 15.074219 17.203125 14.691406 17.242188 C 14.390625 17.269531 14.054688 17.289062 13.78125 17.429688 C 13.714844 17.464844 13.660156 17.484375 13.59375 17.492188 C 13.726562 18.101562 13.867188 18.722656 14.042969 19.320312 C 14.230469 19.949219 14.417969 20.558594 14.476562 21.214844 C 14.511719 21.695312 14.476562 22.152344 15.054688 22.132812 C 15.535156 22.125 15.992188 22.003906 16.460938 21.945312 C 17.15625 21.863281 17.886719 21.898438 18.582031 21.882812 C 19.125 21.863281 19.667969 21.851562 20.210938 21.898438 C 20.664062 21.9375 21.121094 21.992188 21.570312 22.003906 C 21.777344 22.003906 22.320312 22.023438 22.414062 21.917969 C 22.585938 21.722656 22.808594 21.710938 22.988281 21.796875 C 23.34375 21.710938 23.699219 21.601562 24.027344 21.449219 C 24.039062 20.484375 23.992188 19.527344 23.898438 18.582031 Z M 23.898438 18.582031 "/>
<path style=" stroke:none;fill-rule:nonzero;fill:rgb(0.392157%,0.392157%,0.392157%);fill-opacity:1;" d="M 42.628906 38.222656 C 42.703125 38.070312 42.722656 37.894531 42.617188 37.714844 C 42.542969 37.574219 42.601562 37.257812 42.601562 37.105469 C 42.601562 36.84375 42.570312 36.589844 42.554688 36.335938 C 42.496094 35.679688 42.460938 35.023438 42.460938 34.359375 C 42.460938 32.898438 42.414062 31.433594 42.394531 29.972656 C 42.367188 26.960938 42.066406 23.960938 41.886719 20.960938 C 41.71875 17.980469 41.804688 15.019531 41.382812 12.054688 C 41.277344 11.34375 41.136719 10.648438 41.023438 9.9375 C 40.921875 9.261719 40.914062 8.570312 40.828125 7.882812 C 40.742188 7.191406 40.527344 6.523438 40.414062 5.832031 C 40.292969 5.089844 40.21875 4.332031 40.132812 3.582031 C 40.097656 3.242188 39.835938 3.101562 39.589844 3.121094 C 39.488281 3.027344 39.347656 2.972656 39.207031 2.980469 C 36.542969 3.132812 33.871094 3.101562 31.21875 3.355469 C 28.519531 3.609375 25.847656 4.085938 23.128906 4.171875 C 20.417969 4.257812 17.710938 4.199219 15.007812 4.386719 C 14.382812 4.425781 13.753906 4.472656 13.144531 4.621094 C 12.910156 4.679688 12.648438 4.761719 12.402344 4.742188 C 12.167969 4.726562 11.945312 4.632812 11.710938 4.59375 C 11.242188 4.519531 10.875 4.707031 10.632812 5.109375 C 10.386719 5.511719 10.648438 5.933594 10.613281 6.335938 C 10.613281 6.355469 10.613281 6.367188 10.613281 6.382812 C 10.03125 6.441406 9.195312 6.488281 8.792969 6.929688 C 8.738281 6.984375 8.691406 7.050781 8.664062 7.125 C 8.605469 7.246094 8.605469 7.359375 8.625 7.460938 C 8.617188 7.492188 8.617188 7.507812 8.617188 7.539062 C 8.570312 8.164062 8.671875 8.746094 8.804688 9.355469 C 8.953125 10.023438 9.019531 10.660156 9.046875 11.335938 C 9.101562 12.75 9.121094 14.15625 9.167969 15.570312 C 9.273438 18.5625 9.273438 21.542969 9.554688 24.515625 C 9.695312 25.996094 9.890625 27.476562 10.058594 28.960938 C 10.226562 30.382812 10.21875 31.835938 10.21875 33.273438 C 10.210938 36.300781 10.199219 39.335938 10.199219 42.367188 C 10.199219 42.609375 10.332031 42.75 10.5 42.796875 C 10.59375 42.929688 10.734375 43.023438 10.941406 43.023438 C 17.148438 43.023438 23.34375 43.132812 29.550781 43.179688 C 30.113281 43.191406 30.683594 43.191406 31.246094 43.191406 L 31.246094 43.097656 C 31.3125 43.058594 31.378906 42.992188 31.425781 42.917969 C 31.773438 42.375 32.175781 41.867188 32.617188 41.398438 C 32.699219 41.464844 32.820312 41.511719 32.960938 41.503906 C 33.957031 41.445312 34.921875 41.183594 35.886719 40.949219 C 36.9375 40.695312 38.015625 40.632812 39.09375 40.519531 C 39.609375 40.460938 40.125 40.398438 40.632812 40.320312 C 41.0625 40.257812 41.53125 40.226562 41.925781 40.03125 C 42.617188 39.683594 42.636719 39 42.628906 38.316406 C 42.636719 38.296875 42.636719 38.257812 42.628906 38.222656 Z M 32.324219 38.222656 C 32.230469 38.117188 32.101562 38.054688 31.929688 38.054688 L 31.902344 38.054688 C 31.894531 38.054688 31.882812 38.054688 31.875 38.054688 C 30.882812 38.0625 29.925781 38.257812 28.949219 38.390625 C 27.46875 38.585938 25.988281 38.820312 24.496094 38.960938 C 21.75 39.234375 18.804688 39.515625 16.105469 38.746094 C 15.46875 38.558594 15.273438 39.582031 15.910156 39.757812 C 18.589844 40.527344 21.46875 40.246094 24.214844 40.03125 C 25.773438 39.910156 27.308594 39.65625 28.855469 39.449219 C 29.898438 39.308594 30.917969 39.09375 31.96875 39.085938 C 31.761719 39.5625 31.546875 40.039062 31.292969 40.5 C 30.984375 41.0625 30.476562 42.019531 29.726562 42 C 29.558594 42 29.4375 42.066406 29.363281 42.160156 C 23.578125 42.113281 17.785156 42.007812 12 42 C 11.746094 42 11.503906 42 11.25 42 C 11.25 39.121094 11.257812 36.253906 11.269531 33.375 C 11.277344 31.949219 11.289062 30.496094 11.128906 29.070312 C 10.960938 27.589844 10.761719 26.109375 10.613281 24.628906 C 10.3125 21.710938 10.292969 18.789062 10.21875 15.863281 C 10.179688 14.445312 10.132812 13.03125 10.097656 11.617188 C 10.078125 10.949219 10.050781 10.285156 9.917969 9.628906 C 9.796875 9.019531 9.589844 8.382812 9.636719 7.753906 C 9.636719 7.707031 9.636719 7.667969 9.636719 7.632812 C 9.742188 7.59375 9.851562 7.566406 9.964844 7.539062 C 10.339844 7.460938 10.714844 7.425781 11.101562 7.398438 C 11.851562 7.332031 12.601562 7.3125 13.351562 7.257812 C 14.570312 7.171875 15.777344 7.117188 16.996094 7.085938 C 18.515625 7.050781 20.023438 6.929688 21.542969 6.824219 C 24.582031 6.617188 27.617188 6.570312 30.664062 6.46875 C 32.960938 6.394531 35.316406 6.273438 37.59375 5.925781 C 37.695312 5.90625 37.78125 5.867188 37.855469 5.8125 C 37.902344 5.898438 37.941406 5.992188 37.976562 6.074219 C 38.070312 6.300781 38.128906 6.542969 38.164062 6.789062 C 38.269531 7.367188 38.277344 7.960938 38.289062 8.539062 C 38.296875 9.804688 38.269531 11.070312 38.304688 12.335938 C 38.390625 15.355469 38.511719 18.382812 38.726562 21.394531 C 38.945312 24.429688 39.289062 27.46875 39.523438 30.507812 C 39.570312 31.070312 39.609375 31.640625 39.636719 32.210938 C 39.429688 32.175781 39.207031 32.242188 39.074219 32.457031 C 39 32.578125 38.390625 32.597656 38.230469 32.605469 C 37.835938 32.632812 37.433594 32.617188 37.039062 32.578125 C 35.746094 32.457031 34.621094 31.667969 33.488281 31.097656 C 33.476562 31.097656 33.46875 31.085938 33.46875 31.085938 L 33.46875 31.171875 C 33.460938 31.171875 33.460938 31.164062 33.449219 31.164062 C 33.132812 30.976562 32.632812 31.152344 32.289062 31.191406 C 31.546875 31.273438 30.804688 31.460938 30.066406 31.585938 C 28.339844 31.855469 26.605469 31.996094 24.871094 32.109375 C 21.449219 32.324219 18.039062 32.390625 14.617188 32.390625 C 13.949219 32.390625 14.035156 33.421875 14.691406 33.421875 C 17.992188 33.421875 21.289062 33.355469 24.582031 33.167969 C 26.210938 33.074219 27.835938 32.945312 29.457031 32.726562 C 30.242188 32.625 31.023438 32.492188 31.800781 32.34375 C 32.0625 32.296875 32.324219 32.242188 32.597656 32.203125 C 32.691406 32.183594 32.785156 32.175781 32.878906 32.15625 C 32.886719 32.15625 32.898438 32.15625 32.90625 32.15625 C 33.007812 32.503906 33.085938 32.867188 33.132812 33.234375 C 31.820312 33.382812 30.515625 33.570312 29.222656 33.871094 C 27.609375 34.246094 26.035156 34.753906 24.382812 34.921875 C 22.78125 35.082031 21.140625 35.042969 19.539062 34.96875 C 18.804688 34.929688 18.074219 34.847656 17.34375 34.820312 C 16.6875 34.789062 15.992188 34.800781 15.394531 34.519531 C 14.792969 34.238281 14.335938 35.164062 14.933594 35.445312 C 15.542969 35.726562 16.191406 35.792969 16.855469 35.832031 C 17.617188 35.878906 18.367188 35.933594 19.125 35.980469 C 20.785156 36.085938 22.453125 36.113281 24.113281 35.992188 C 25.800781 35.867188 27.402344 35.390625 29.035156 34.988281 C 30.414062 34.648438 31.800781 34.445312 33.195312 34.285156 C 33.195312 34.59375 33.179688 34.902344 33.148438 35.210938 C 33.121094 35.210938 33.09375 35.210938 33.066406 35.210938 C 33.054688 35.257812 33.054688 35.316406 33.046875 35.363281 C 33.046875 35.417969 33.039062 35.476562 33.039062 35.539062 C 32.597656 35.523438 32.148438 35.570312 31.707031 35.597656 C 30.984375 35.644531 30.261719 35.671875 29.539062 35.757812 C 28.050781 35.945312 26.585938 36.261719 25.097656 36.429688 C 22.03125 36.789062 18.910156 36.992188 15.824219 36.675781 C 15.167969 36.609375 14.960938 37.621094 15.628906 37.6875 C 18.628906 37.996094 21.648438 37.828125 24.636719 37.507812 C 26.128906 37.351562 27.601562 37.078125 29.082031 36.851562 C 29.851562 36.742188 30.617188 36.65625 31.386719 36.628906 C 31.894531 36.609375 32.417969 36.515625 32.925781 36.542969 C 32.746094 37.105469 32.550781 37.6875 32.324219 38.222656 Z M 32.738281 39.890625 C 32.886719 39.542969 33.039062 39.1875 33.179688 38.839844 C 33.777344 37.40625 34.191406 35.71875 34.179688 34.070312 C 34.199219 34.058594 34.210938 34.050781 34.226562 34.039062 C 34.226562 33.796875 34.210938 33.554688 34.171875 33.308594 C 34.164062 33.253906 34.171875 33.207031 34.199219 33.167969 C 34.171875 33.140625 34.152344 33.113281 34.125 33.085938 C 34.105469 32.90625 34.078125 32.738281 34.050781 32.558594 C 35.007812 33.066406 35.972656 33.515625 37.078125 33.601562 C 37.707031 33.648438 38.605469 33.722656 39.28125 33.449219 C 39.273438 33.46875 39.273438 33.488281 39.261719 33.507812 C 38.671875 34.257812 38.015625 34.929688 37.332031 35.597656 C 36.535156 36.367188 35.738281 37.152344 34.921875 37.902344 C 34.199219 38.578125 33.449219 39.214844 32.738281 39.890625 Z M 41.585938 39.027344 C 41.503906 39.261719 40.929688 39.253906 40.734375 39.289062 C 39.824219 39.441406 38.914062 39.523438 38.007812 39.609375 C 37.179688 39.683594 36.375 39.796875 35.558594 39.992188 C 34.921875 40.144531 34.304688 40.304688 33.65625 40.40625 C 34.367188 39.75 35.109375 39.132812 35.8125 38.484375 C 36.589844 37.761719 37.339844 37.011719 38.109375 36.28125 C 38.925781 35.503906 39.710938 34.6875 40.367188 33.757812 C 40.5 33.582031 40.507812 33.382812 40.445312 33.234375 L 40.707031 33.234375 C 40.574219 30.46875 40.292969 27.703125 40.039062 24.945312 C 39.757812 21.917969 39.609375 18.890625 39.46875 15.851562 C 39.394531 14.34375 39.328125 12.835938 39.289062 11.324219 C 39.261719 10.132812 39.328125 8.945312 39.28125 7.753906 C 39.261719 7.179688 39.1875 6.609375 39.046875 6.054688 C 38.933594 5.597656 38.71875 4.996094 38.242188 4.828125 C 38.054688 4.761719 37.882812 4.800781 37.753906 4.894531 C 37.6875 4.867188 37.601562 4.855469 37.507812 4.875 C 35.164062 5.230469 32.765625 5.34375 30.402344 5.417969 C 27.300781 5.523438 24.195312 5.578125 21.09375 5.792969 C 18.421875 5.980469 15.757812 6.046875 13.085938 6.214844 C 12.609375 6.242188 12.132812 6.273438 11.644531 6.300781 C 11.644531 6.207031 11.632812 6.113281 11.625 6.019531 C 11.605469 5.925781 11.550781 5.746094 11.558594 5.632812 C 11.578125 5.632812 11.605469 5.632812 11.632812 5.632812 C 11.757812 5.652344 11.867188 5.691406 11.992188 5.71875 C 12.234375 5.773438 12.460938 5.773438 12.710938 5.757812 C 13.273438 5.726562 13.828125 5.511719 14.390625 5.464844 C 15.046875 5.410156 15.703125 5.371094 16.359375 5.34375 C 18.882812 5.222656 21.414062 5.289062 23.945312 5.175781 C 26.476562 5.0625 28.976562 4.601562 31.5 4.367188 C 33.945312 4.144531 36.421875 4.164062 38.878906 4.039062 C 38.960938 4.097656 39.054688 4.125 39.167969 4.097656 C 39.226562 4.640625 39.289062 5.195312 39.375 5.738281 C 39.488281 6.488281 39.703125 7.21875 39.816406 7.960938 C 39.917969 8.644531 39.917969 9.328125 40.011719 10.011719 C 40.105469 10.78125 40.285156 11.539062 40.386719 12.308594 C 40.820312 15.328125 40.707031 18.367188 40.894531 21.402344 C 41.070312 24.46875 41.371094 27.523438 41.382812 30.601562 C 41.382812 32.042969 41.417969 33.476562 41.445312 34.921875 C 41.457031 35.558594 41.503906 36.195312 41.578125 36.824219 C 41.632812 37.285156 41.53125 37.707031 41.699219 38.128906 C 41.652344 38.203125 41.625 38.296875 41.625 38.410156 C 41.617188 38.605469 41.652344 38.851562 41.585938 39.027344 Z M 41.585938 39.027344 "/>
<path style=" stroke:none;fill-rule:nonzero;fill:rgb(0.392157%,0.392157%,0.392157%);fill-opacity:1;" d="M 17.578125 8.898438 C 17.503906 8.242188 16.472656 8.316406 16.546875 8.972656 C 16.621094 9.601562 16.425781 10.292969 16.351562 10.921875 C 16.285156 11.410156 16.273438 11.90625 16.226562 12.394531 C 15.84375 11.925781 15.429688 11.484375 15.121094 10.960938 C 14.679688 10.226562 14.34375 9.28125 13.660156 8.738281 C 13.507812 8.617188 13.351562 8.597656 13.210938 8.632812 C 12.929688 8.476562 12.507812 8.550781 12.441406 8.960938 C 12.289062 9.898438 12.5625 10.882812 12.664062 11.8125 C 12.757812 12.675781 12.816406 13.554688 12.816406 14.429688 C 12.816406 15.09375 13.847656 15.007812 13.847656 14.351562 L 13.847656 14.277344 C 13.847656 14.269531 13.847656 14.257812 13.847656 14.25 C 13.847656 13.492188 13.800781 12.722656 13.726562 11.960938 C 13.660156 11.34375 13.492188 10.667969 13.445312 10.011719 C 13.753906 10.460938 13.976562 11.015625 14.230469 11.457031 C 14.738281 12.328125 15.589844 12.957031 16.039062 13.867188 C 16.273438 14.34375 16.867188 14.296875 17.035156 13.789062 C 17.335938 12.882812 17.289062 11.914062 17.410156 10.976562 C 17.464844 10.304688 17.652344 9.570312 17.578125 8.898438 Z M 23.148438 12.730469 C 21.890625 12.683594 20.652344 12.9375 19.40625 12.976562 C 19.433594 12.421875 19.414062 11.851562 19.378906 11.296875 C 19.425781 11.316406 19.480469 11.324219 19.539062 11.324219 C 20.148438 11.335938 20.738281 11.351562 21.347656 11.316406 C 21.777344 11.289062 22.292969 11.128906 22.714844 11.25 C 23.351562 11.445312 23.539062 10.425781 22.914062 10.238281 C 22.472656 10.105469 21.9375 10.21875 21.488281 10.265625 C 20.8125 10.339844 20.136719 10.304688 19.460938 10.292969 C 19.414062 10.292969 19.367188 10.304688 19.332031 10.304688 C 19.320312 9.945312 19.320312 9.460938 19.21875 9.066406 C 19.835938 8.878906 20.625 9.007812 21.253906 9 C 21.75 9 22.480469 9.085938 22.914062 8.785156 C 23.464844 8.410156 22.882812 7.554688 22.332031 7.929688 C 22.445312 7.855469 22.238281 7.929688 22.199219 7.929688 C 22.058594 7.949219 21.917969 7.949219 21.777344 7.960938 C 21.488281 7.96875 21.195312 7.960938 20.90625 7.976562 C 20.183594 8.035156 19.453125 7.855469 18.75 8.117188 C 18.628906 8.164062 18.542969 8.242188 18.488281 8.335938 C 18.09375 8.351562 17.933594 8.839844 18.132812 9.148438 C 18.140625 9.167969 18.140625 9.179688 18.140625 9.179688 C 18.140625 9.179688 18.140625 9.1875 18.148438 9.214844 C 18.179688 9.375 18.195312 9.523438 18.214844 9.683594 C 18.261719 10.117188 18.289062 10.539062 18.308594 10.96875 C 18.328125 11.410156 18.347656 11.859375 18.355469 12.300781 C 18.355469 12.476562 18.355469 12.65625 18.355469 12.835938 C 18.355469 12.910156 18.355469 12.992188 18.355469 13.070312 C 18.355469 13.097656 18.355469 13.105469 18.355469 13.125 C 18.355469 13.117188 18.355469 13.117188 18.355469 13.132812 C 18.328125 13.460938 18.5625 13.679688 18.804688 13.726562 C 18.890625 13.882812 19.050781 13.996094 19.273438 13.996094 C 20.597656 13.988281 21.890625 13.695312 23.210938 13.742188 C 23.886719 13.789062 23.804688 12.757812 23.148438 12.730469 Z M 29.785156 8.585938 C 29.484375 9.046875 29.539062 9.65625 29.503906 10.179688 C 29.464844 10.59375 29.398438 10.996094 29.316406 11.410156 C 28.914062 10.59375 28.566406 9.742188 27.84375 9.121094 C 27.648438 8.953125 27.28125 8.945312 27.113281 9.167969 C 26.746094 9.675781 26.699219 10.292969 26.617188 10.902344 C 26.558594 11.296875 26.457031 11.679688 26.351562 12.054688 C 26.128906 11.597656 25.96875 11.101562 25.800781 10.632812 C 25.507812 9.789062 24.917969 8.953125 24.945312 8.023438 C 24.976562 7.359375 23.945312 7.445312 23.914062 8.101562 C 23.878906 9.121094 24.496094 10.03125 24.816406 10.96875 C 25.144531 11.925781 25.5 12.890625 26.210938 13.640625 C 26.492188 13.941406 26.980469 13.707031 27.054688 13.351562 C 27.207031 12.664062 27.421875 12 27.582031 11.316406 C 27.636719 11.070312 27.636719 10.773438 27.675781 10.480469 C 28.246094 11.296875 28.507812 12.320312 29.128906 13.105469 C 29.390625 13.445312 29.992188 13.386719 30.066406 12.917969 C 30.1875 12.160156 30.347656 11.410156 30.476562 10.660156 C 30.5625 10.171875 30.429688 9.476562 30.710938 9.054688 C 31.078125 8.484375 30.148438 8.035156 29.785156 8.585938 Z M 35.304688 9.984375 C 34.996094 9.523438 34.566406 9.273438 34.03125 9.140625 C 33.601562 9.039062 33.101562 9.160156 32.699219 9.019531 C 32.558594 8.972656 33.1875 8.429688 33.261719 8.371094 C 33.609375 8.148438 34.320312 8.042969 34.695312 8.203125 C 35.304688 8.457031 35.765625 7.539062 35.15625 7.273438 C 34.285156 6.910156 33.085938 7.132812 32.363281 7.742188 C 31.695312 8.304688 31.199219 9.5625 32.335938 9.957031 C 32.785156 10.117188 33.253906 9.992188 33.703125 10.105469 C 34.265625 10.246094 34.613281 10.574219 34.667969 11.175781 C 34.78125 12.261719 33.1875 12.328125 32.445312 12.328125 C 31.78125 12.335938 31.867188 13.359375 32.523438 13.359375 C 33.375 13.351562 34.398438 13.238281 35.070312 12.65625 C 35.886719 12.007812 35.867188 10.808594 35.304688 9.984375 Z M 24.910156 18.328125 C 24.816406 17.324219 24.703125 16.273438 24.367188 15.328125 C 24.179688 14.8125 23.492188 14.953125 23.371094 15.367188 C 21.703125 15.382812 20.023438 15.488281 18.367188 15.65625 C 17.371094 15.757812 16.386719 15.976562 15.394531 16.105469 C 14.652344 16.210938 13.875 16.199219 13.210938 16.566406 C 13.164062 16.59375 13.125 16.621094 13.097656 16.648438 C 12.777344 16.566406 12.402344 16.753906 12.488281 17.15625 C 12.664062 17.992188 12.851562 18.835938 13.078125 19.648438 C 13.179688 20.007812 13.292969 20.363281 13.386719 20.71875 C 13.480469 21.074219 13.453125 21.476562 13.507812 21.84375 C 13.714844 23.25 15.027344 23.222656 16.144531 23.023438 C 16.855469 22.902344 17.585938 22.921875 18.320312 22.902344 C 18.957031 22.882812 19.585938 22.855469 20.222656 22.914062 C 20.972656 22.976562 22.21875 23.242188 22.949219 22.789062 C 23.023438 22.800781 23.101562 22.800781 23.183594 22.78125 C 23.773438 22.640625 24.328125 22.453125 24.863281 22.164062 C 25.03125 22.070312 25.085938 21.871094 25.085938 21.695312 C 25.078125 20.578125 25.011719 19.453125 24.910156 18.328125 Z M 22.996094 21.789062 C 22.820312 21.703125 22.59375 21.722656 22.425781 21.910156 C 22.332031 22.011719 21.789062 21.992188 21.582031 21.992188 C 21.132812 21.992188 20.671875 21.9375 20.222656 21.890625 C 19.679688 21.84375 19.132812 21.863281 18.589844 21.871094 C 17.898438 21.890625 17.164062 21.84375 16.472656 21.9375 C 16.003906 21.992188 15.542969 22.117188 15.066406 22.125 C 14.484375 22.144531 14.523438 21.683594 14.484375 21.207031 C 14.4375 20.550781 14.242188 19.941406 14.054688 19.3125 C 13.875 18.710938 13.734375 18.09375 13.601562 17.484375 C 13.667969 17.476562 13.726562 17.457031 13.789062 17.417969 C 14.0625 17.269531 14.398438 17.257812 14.699219 17.230469 C 15.085938 17.195312 15.449219 17.136719 15.835938 17.082031 C 16.761719 16.949219 17.679688 16.753906 18.609375 16.660156 C 20.269531 16.492188 21.9375 16.386719 23.605469 16.378906 C 23.773438 17.101562 23.832031 17.851562 23.90625 18.570312 C 24 19.519531 24.046875 20.476562 24.054688 21.421875 C 23.710938 21.589844 23.351562 21.695312 22.996094 21.789062 Z M 34.929688 14.8125 C 34.929688 14.792969 34.921875 14.785156 34.921875 14.765625 C 34.867188 14.53125 34.613281 14.429688 34.398438 14.417969 C 33.039062 14.371094 31.707031 14.671875 30.367188 14.867188 C 28.949219 15.085938 27.515625 15.160156 26.082031 15.167969 C 25.414062 15.167969 25.5 16.199219 26.15625 16.199219 C 27.535156 16.199219 28.902344 16.117188 30.261719 15.929688 C 31.527344 15.757812 32.765625 15.46875 34.039062 15.449219 C 34.238281 15.570312 34.539062 15.589844 34.734375 15.394531 L 34.726562 15.414062 C 34.941406 15.261719 34.996094 15.046875 34.929688 14.8125 Z M 34.585938 16.050781 C 33.214844 16.179688 31.882812 16.539062 30.523438 16.679688 C 29.351562 16.800781 28.210938 16.921875 27.027344 16.929688 C 26.363281 16.929688 26.445312 17.960938 27.101562 17.960938 C 28.226562 17.960938 29.351562 17.898438 30.460938 17.738281 C 31.734375 17.550781 33 17.289062 34.273438 17.136719 C 34.332031 17.15625 34.398438 17.164062 34.472656 17.15625 C 34.640625 17.136719 34.761719 17.089844 34.914062 17.007812 C 35.363281 16.726562 35.082031 16.003906 34.585938 16.050781 Z M 35.023438 18.046875 C 33.628906 18 32.277344 18.347656 30.898438 18.488281 C 29.585938 18.617188 28.292969 19.03125 26.960938 18.984375 C 26.296875 18.964844 26.382812 19.988281 27.039062 20.015625 C 28.367188 20.0625 29.664062 19.648438 30.976562 19.519531 C 32.210938 19.386719 33.429688 19.105469 34.667969 19.078125 C 34.800781 19.144531 34.960938 19.152344 35.117188 19.078125 C 35.773438 19.003906 35.664062 18.066406 35.023438 18.046875 Z M 35.851562 19.996094 C 35.351562 19.921875 34.835938 20.0625 34.339844 20.109375 C 33.515625 20.183594 32.699219 20.277344 31.882812 20.398438 C 30.09375 20.671875 28.339844 20.980469 26.523438 20.992188 C 25.855469 20.992188 25.941406 22.023438 26.597656 22.023438 C 28.285156 22.011719 29.945312 21.777344 31.601562 21.488281 C 32.410156 21.347656 33.226562 21.234375 34.050781 21.160156 C 34.332031 21.132812 34.613281 21.121094 34.894531 21.085938 C 35.128906 21.054688 35.445312 20.980469 35.652344 21.007812 C 36.308594 21.113281 36.507812 20.101562 35.851562 19.996094 Z M 35.023438 22.238281 L 34.714844 22.238281 C 34.554688 22.238281 34.445312 22.292969 34.367188 22.386719 C 33.863281 22.453125 33.347656 22.414062 32.839844 22.492188 C 31.988281 22.621094 31.132812 22.707031 30.28125 22.828125 C 28.480469 23.101562 26.671875 23.269531 24.863281 23.4375 C 21.335938 23.765625 17.8125 24.234375 14.269531 24.242188 C 13.601562 24.242188 13.6875 25.273438 14.34375 25.273438 C 17.945312 25.265625 21.535156 24.796875 25.117188 24.460938 C 26.925781 24.289062 28.734375 24.113281 30.535156 23.839844 C 31.367188 23.71875 32.210938 23.632812 33.046875 23.503906 C 33.777344 23.390625 34.507812 23.492188 35.222656 23.25 C 35.804688 23.035156 35.585938 22.238281 35.023438 22.238281 Z M 35.960938 23.859375 L 35.839844 23.859375 C 35.820312 23.859375 35.804688 23.859375 35.773438 23.859375 C 34.085938 23.886719 32.410156 24.179688 30.730469 24.375 C 28.976562 24.589844 27.226562 24.871094 25.480469 25.164062 C 23.746094 25.445312 22.011719 25.734375 20.257812 25.894531 C 18.460938 26.054688 16.640625 26.101562 14.832031 26.109375 C 14.164062 26.109375 14.25 27.140625 14.90625 27.140625 C 16.660156 27.140625 18.402344 27.085938 20.148438 26.945312 C 21.898438 26.804688 23.632812 26.511719 25.367188 26.222656 C 27.113281 25.929688 28.855469 25.648438 30.609375 25.433594 C 32.398438 25.210938 34.210938 24.898438 36.027344 24.890625 C 36.703125 24.882812 36.617188 23.859375 35.960938 23.859375 Z M 34.828125 26.417969 L 34.714844 26.417969 C 34.6875 26.417969 34.660156 26.417969 34.640625 26.429688 C 33.976562 26.464844 33.375 26.664062 32.71875 26.792969 C 31.867188 26.960938 30.984375 27 30.113281 27.113281 C 28.304688 27.335938 26.484375 27.515625 24.675781 27.695312 C 22.96875 27.863281 21.253906 28.097656 19.539062 28.191406 C 17.820312 28.285156 16.117188 28.085938 14.410156 28.171875 C 13.742188 28.210938 13.828125 29.230469 14.484375 29.203125 C 16.132812 29.117188 17.785156 29.296875 19.445312 29.230469 C 21.214844 29.15625 22.988281 28.902344 24.757812 28.726562 C 26.511719 28.554688 28.265625 28.378906 30.019531 28.171875 C 30.890625 28.070312 31.761719 28.003906 32.632812 27.863281 C 33.414062 27.742188 34.125 27.460938 34.921875 27.460938 C 35.570312 27.449219 35.484375 26.417969 34.828125 26.417969 Z M 35.992188 28.351562 C 36.160156 28.179688 36.179688 28.246094 35.992188 28.265625 C 35.859375 28.285156 35.71875 28.292969 35.585938 28.304688 C 35.335938 28.320312 35.082031 28.332031 34.835938 28.386719 C 33.9375 28.59375 33.027344 28.789062 32.109375 28.902344 C 31.164062 29.023438 30.195312 29.042969 29.25 29.109375 C 28.238281 29.175781 27.234375 29.316406 26.242188 29.445312 C 24.308594 29.710938 22.398438 30.066406 20.445312 30.140625 C 19.507812 30.179688 18.570312 30.160156 17.632812 30.160156 C 16.761719 30.160156 15.777344 30.289062 14.925781 30.101562 C 14.277344 29.960938 14.082031 30.976562 14.726562 31.117188 C 15.582031 31.292969 16.5 31.191406 17.363281 31.191406 C 18.355469 31.191406 19.351562 31.199219 20.351562 31.171875 C 22.414062 31.117188 24.449219 30.722656 26.503906 30.449219 C 27.507812 30.320312 28.507812 30.1875 29.511719 30.121094 C 30.523438 30.054688 31.546875 30.019531 32.558594 29.878906 C 33.449219 29.757812 34.3125 29.464844 35.195312 29.363281 C 35.691406 29.296875 36.402344 29.410156 36.777344 29.023438 C 37.226562 28.554688 36.449219 27.871094 35.992188 28.351562 Z M 35.992188 28.351562 "/>
</g>
</svg>
